<svg width="24" height="25" viewBox="0 0 24 25" fill="none" xmlns="http://www.w3.org/2000/svg">
<circle cx="12" cy="12.5" r="12" fill="#CE893E"/>
<g clip-path="url(#clip0_1137_2987)">
<path fill-rule="evenodd" clip-rule="evenodd" d="M9.596 5.84206C9.43867 6.15788 9.2299 6.61423 9.09083 7.07542C7.87317 7.14468 6.99137 7.25146 6.37569 7.35289C5.42536 7.50944 4.78748 8.28281 4.69768 9.19617C4.62837 9.90117 4.55267 10.9027 4.51855 12.1433C4.67596 12.1943 4.87971 12.2597 5.11938 12.3354C5.71022 12.522 6.51812 12.7705 7.38743 13.0189C8.25763 13.2675 9.1846 13.5146 10.0148 13.6991C10.8569 13.8862 11.5599 13.9997 12.0001 13.9997C12.4403 13.9997 13.1433 13.8862 13.9854 13.6991C14.8155 13.5146 15.7425 13.2675 16.6127 13.0189C17.482 12.7705 18.2899 12.522 18.8808 12.3354C19.1204 12.2597 19.3242 12.1943 19.4816 12.1433C19.4475 10.9027 19.3718 9.90117 19.3024 9.19617C19.2127 8.28281 18.5748 7.50944 17.6244 7.35289C17.0088 7.25146 16.127 7.14468 14.9093 7.07542C14.7702 6.61423 14.5615 6.15788 14.4041 5.84206C14.1607 5.35341 13.6969 4.98492 13.1199 4.90599C12.8333 4.86678 12.4546 4.83301 12.0001 4.83301C11.5456 4.83301 11.1668 4.86678 10.8803 4.90599C10.3033 4.98492 9.83943 5.35341 9.596 5.84206ZM12.0001 6.16634C11.6115 6.16634 11.2933 6.19523 11.061 6.22702C10.9564 6.24132 10.8528 6.3095 10.7895 6.43657C10.7027 6.61073 10.6092 6.81171 10.5257 7.01758C10.9816 7.00607 11.4723 6.99967 12.0001 6.99967C12.5278 6.99967 13.0186 7.00607 13.4744 7.01758C13.3909 6.81171 13.2974 6.61073 13.2107 6.43657C13.1474 6.3095 13.0437 6.24132 12.9392 6.22702C12.7068 6.19523 12.3886 6.16634 12.0001 6.16634Z" fill="white"/>
<path d="M19.499 13.1885C19.402 13.2195 19.2959 13.2533 19.1818 13.2893C18.5852 13.4777 17.768 13.7291 16.8874 13.9808C16.0076 14.2321 15.0595 14.4851 14.2022 14.6756C13.3568 14.8635 12.5598 15 12 15C11.4402 15 10.6432 14.8635 9.7978 14.6756C8.94047 14.4851 7.99243 14.2321 7.11264 13.9808C6.23195 13.7291 5.41485 13.4777 4.81818 13.2893C4.70406 13.2533 4.59795 13.2195 4.50096 13.1885C4.50033 13.2911 4.5 13.3949 4.5 13.5C4.5 15.3762 4.60456 16.8571 4.69762 17.8035C4.78742 18.7169 5.4253 19.4902 6.37562 19.6468C7.40243 19.8159 9.16937 20 12 20C14.8306 20 16.5976 19.8159 17.6244 19.6468C18.5747 19.4902 19.2126 18.7169 19.3024 17.8035C19.3954 16.8571 19.5 15.3762 19.5 13.5C19.5 13.3949 19.4997 13.2911 19.499 13.1885Z" fill="white"/>
</g>
<defs>
<clipPath id="clip0_1137_2987">
<rect width="16" height="16" fill="white" transform="translate(4 4.5)"/>
</clipPath>
</defs>
</svg>
