<svg width="24" height="25" viewBox="0 0 24 25" fill="none" xmlns="http://www.w3.org/2000/svg">
<circle cx="12" cy="12.5" r="12" fill="#CE893E"/>
<path fill-rule="evenodd" clip-rule="evenodd" d="M15.2865 5.16323C15.4035 5.21702 15.5105 5.28602 15.6045 5.36764C15.5333 5.40239 15.449 5.44332 15.3542 5.48895C15.046 5.63714 14.6278 5.83424 14.1859 6.03088C13.7424 6.22821 13.2822 6.42179 12.8882 6.56495C12.6909 6.63662 12.5175 6.69297 12.3754 6.73074C12.2234 6.77115 12.1435 6.78022 12.1189 6.78022C12.0943 6.78022 12.0144 6.77115 11.8624 6.73074C11.7203 6.69297 11.5469 6.63662 11.3497 6.56495C10.9556 6.42179 10.4955 6.22821 10.0519 6.03088C9.60998 5.83424 9.19182 5.63714 8.88368 5.48895C8.7888 5.44332 8.70449 5.40239 8.6333 5.36764C8.72734 5.28602 8.83428 5.21702 8.95133 5.16323C9.79438 4.77578 11.2745 4.15625 12.1189 4.15625C12.9633 4.15625 14.4434 4.77578 15.2865 5.16323ZM12.6893 12.0752V7.82771C12.8704 7.77866 13.0708 7.71241 13.2778 7.63723C13.708 7.48093 14.1957 7.2752 14.6496 7.07323C15.1051 6.87058 15.534 6.66837 15.8486 6.51709C15.9212 6.48219 15.9877 6.44996 16.0472 6.42101C16.0827 6.84324 16.1119 7.41396 16.1119 8.14924C16.1119 9.04607 16.0685 9.69807 16.0231 10.1344C15.977 10.5789 15.6926 10.9486 15.2865 11.1352C14.6114 11.4455 13.5279 11.9046 12.6893 12.0752ZM8.95133 11.1352C8.54526 10.9486 8.26085 10.5789 8.21468 10.1344C8.16931 9.69807 8.12592 9.04607 8.12592 8.14924C8.12592 7.41396 8.15509 6.84324 8.19061 6.42101C8.25008 6.44996 8.31667 6.48219 8.38923 6.51709C8.7038 6.66837 9.13273 6.87058 9.58819 7.07323C10.0421 7.2752 10.5299 7.48093 10.9601 7.63723C11.167 7.71241 11.3674 7.77866 11.5485 7.82771V12.0752C10.7099 11.9046 9.62641 11.4455 8.95133 11.1352ZM10.7231 13.2443C10.8401 13.2981 10.9471 13.3671 11.0411 13.4487C10.9699 13.4835 10.8856 13.5244 10.7907 13.57C10.4826 13.7182 10.0644 13.9153 9.62246 14.1119C9.17893 14.3093 8.71879 14.5029 8.32473 14.646C8.12748 14.7177 7.95411 14.774 7.812 14.8118C7.66 14.8522 7.5801 14.8613 7.55549 14.8613C7.53089 14.8613 7.45099 14.8522 7.29899 14.8118C7.15688 14.774 6.98351 14.7177 6.78624 14.646C6.3922 14.5029 5.93206 14.3093 5.48853 14.1119C5.04654 13.9153 4.62839 13.7182 4.32025 13.57C4.22537 13.5244 4.14107 13.4835 4.0699 13.4487C4.16393 13.3671 4.27087 13.2981 4.38791 13.2443C5.23098 12.8568 6.71106 12.2373 7.55549 12.2373C8.39992 12.2373 9.88002 12.8568 10.7231 13.2443ZM8.12592 20.1562V15.9088C8.30701 15.8597 8.50742 15.7935 8.71434 15.7183C9.14455 15.562 9.63227 15.3563 10.0862 15.1543C10.5417 14.9516 10.9706 14.7494 11.2852 14.5982C11.3577 14.5632 11.4243 14.531 11.4838 14.5021C11.5193 14.9243 11.5485 15.495 11.5485 16.2303C11.5485 17.1271 11.5051 17.7791 11.4597 18.2155C11.4136 18.66 11.1291 19.0297 10.7231 19.2163C10.048 19.5266 8.96449 19.9856 8.12592 20.1562ZM4.38791 19.2163C3.98185 19.0297 3.69742 18.66 3.65124 18.2155C3.60591 17.7791 3.5625 17.1271 3.5625 16.2303C3.5625 15.495 3.59168 14.9243 3.62718 14.5021C3.68667 14.531 3.75324 14.5632 3.8258 14.5982C4.14037 14.7494 4.5693 14.9516 5.02478 15.1543C5.47872 15.3563 5.96643 15.562 6.39666 15.7183C6.60357 15.7935 6.80397 15.8597 6.98507 15.9088V20.1562C6.14651 19.9856 5.06299 19.5266 4.38791 19.2163ZM20.1679 13.4487C20.0739 13.3671 19.967 13.2981 19.8499 13.2443C19.0069 12.8568 17.5268 12.2373 16.6823 12.2373C15.8379 12.2373 14.3578 12.8568 13.5147 13.2443C13.3977 13.2981 13.2908 13.3671 13.1967 13.4487C13.2679 13.4835 13.3522 13.5244 13.4471 13.57C13.7552 13.7182 14.1734 13.9153 14.6154 14.1119C15.0589 14.3093 15.519 14.5029 15.9131 14.646C16.1103 14.7177 16.2837 14.774 16.4258 14.8118C16.5778 14.8522 16.6577 14.8613 16.6823 14.8613C16.7069 14.8613 16.7868 14.8522 16.9388 14.8118C17.0809 14.774 17.2543 14.7177 17.4516 14.646C17.8456 14.5029 18.3058 14.3093 18.7493 14.1119C19.1913 13.9153 19.6094 13.7182 19.9176 13.57C20.0125 13.5244 20.0968 13.4835 20.1679 13.4487ZM17.2528 15.9088V20.1562C18.0913 19.9856 19.1748 19.5266 19.8499 19.2163C20.256 19.0297 20.5404 18.66 20.5866 18.2155C20.6319 17.7791 20.6753 17.1271 20.6753 16.2303C20.6753 15.495 20.6462 14.9243 20.6106 14.5021C20.5512 14.531 20.4846 14.5632 20.412 14.5982C20.0974 14.7494 19.6685 14.9516 19.2131 15.1543C18.7591 15.3563 18.2714 15.562 17.8412 15.7183C17.6343 15.7935 17.4339 15.8597 17.2528 15.9088ZM12.7781 18.2155C12.8243 18.66 13.1087 19.0297 13.5147 19.2163C14.1898 19.5266 15.2733 19.9856 16.1119 20.1562V15.9088C15.9308 15.8597 15.7304 15.7935 15.5235 15.7183C15.0933 15.562 14.6056 15.3563 14.1516 15.1543C13.6961 14.9516 13.2672 14.7494 12.9527 14.5982C12.8801 14.5632 12.8135 14.531 12.754 14.5021C12.7185 14.9243 12.6893 15.495 12.6893 16.2303C12.6893 17.1271 12.7327 17.7791 12.7781 18.2155Z" fill="white"/>
</svg>
