<svg width="24" height="25" viewBox="0 0 24 25" fill="none" xmlns="http://www.w3.org/2000/svg">
<circle cx="12" cy="12.5" r="12" fill="#CE893E"/>
<g clip-path="url(#clip0_1137_2972)">
<path fill-rule="evenodd" clip-rule="evenodd" d="M11.1432 7.81604V6.49358H10.3787C9.90529 6.49358 9.52153 6.10982 9.52153 5.63644C9.52153 5.16305 9.90529 4.7793 10.3787 4.7793H13.6217C14.0951 4.7793 14.4789 5.16305 14.4789 5.63644C14.4789 6.10982 14.0951 6.49358 13.6217 6.49358H12.8575V7.81607C14.5571 8.00902 16.1515 8.77164 17.3728 9.993C18.7977 11.4179 19.5982 13.3505 19.5982 15.3656C19.5982 15.6315 19.4149 15.8622 19.1559 15.9223L16.7767 16.4741C13.634 17.2029 10.3663 17.2029 7.22367 16.4741L4.84445 15.9223C4.58547 15.8622 4.40212 15.6315 4.40212 15.3656C4.40212 13.3505 5.20262 11.4179 6.62753 9.993C7.84897 8.77156 9.44345 8.00893 11.1432 7.81604ZM5.16719 17.697C4.70604 17.59 4.24551 17.8771 4.13856 18.3382C4.03162 18.7994 4.31875 19.2599 4.7799 19.3669L7.15913 19.9187C10.3442 20.6573 13.6561 20.6573 16.8413 19.9187L19.2205 19.3669C19.6816 19.2599 19.9687 18.7994 19.8619 18.3382C19.7549 17.8771 19.2943 17.59 18.8332 17.697L16.454 18.2487C13.5237 18.9283 10.4767 18.9283 7.54641 18.2487L5.16719 17.697Z" fill="white"/>
</g>
<defs>
<clipPath id="clip0_1137_2972">
<rect width="16" height="16" fill="white" transform="translate(4 4.5)"/>
</clipPath>
</defs>
</svg>
