<svg width="24" height="25" viewBox="0 0 24 25" fill="none" xmlns="http://www.w3.org/2000/svg">
<circle cx="12" cy="12.5" r="12" fill="#CE893E"/>
<path fill-rule="evenodd" clip-rule="evenodd" d="M4.5 11.8333C4.5 8.0594 7.5594 5 11.3333 5C15.1073 5 18.1667 8.0594 18.1667 11.8333C18.1667 12.0127 18.1598 12.1904 18.1462 12.3662C18.066 13.4376 17.7633 14.4932 17.4768 15.4006C17.421 15.5774 17.3663 15.7469 17.3136 15.91C17.2049 16.247 17.105 16.5566 17.0224 16.8457C16.8988 17.2784 16.8333 17.6027 16.8333 17.8333C16.8333 18.3413 16.9831 18.6228 17.1323 18.7752C17.2866 18.9328 17.4861 19 17.6667 19C17.8194 19 17.9246 18.9682 18.0021 18.9229C18.0792 18.8778 18.1585 18.8018 18.2328 18.6668C18.3915 18.3786 18.5 17.8714 18.5 17.0556C18.5 16.7794 18.7239 16.5556 19 16.5556C19.2761 16.5556 19.5 16.7794 19.5 17.0556C19.5 17.9203 19.3918 18.6353 19.1088 19.1492C18.9623 19.4152 18.7646 19.6353 18.5073 19.7859C18.2504 19.9363 17.9639 20 17.6667 20C17.2472 20 16.7801 19.845 16.4177 19.4748C16.0503 19.0994 15.8333 18.5476 15.8333 17.8333C15.8333 17.5289 15.8981 17.1867 15.9887 16.8356C14.7685 17.9717 13.1321 18.6667 11.3333 18.6667C7.5594 18.6667 4.5 15.6073 4.5 11.8333ZM9.83333 8.5C9.83333 7.67157 10.5049 7 11.3333 7C12.1618 7 12.8333 7.67157 12.8333 8.5C12.8333 9.32843 12.1618 10 11.3333 10C10.5049 10 9.83333 9.32843 9.83333 8.5ZM14.6667 10.3333C15.4951 10.3333 16.1667 11.0049 16.1667 11.8333C16.1667 12.6618 15.4951 13.3333 14.6667 13.3333C13.8382 13.3333 13.1667 12.6618 13.1667 11.8333C13.1667 11.0049 13.8382 10.3333 14.6667 10.3333ZM11.3333 16.6667C10.5049 16.6667 9.83333 15.9951 9.83333 15.1667C9.83333 14.3382 10.5049 13.6667 11.3333 13.6667C12.1618 13.6667 12.8333 14.3382 12.8333 15.1667C12.8333 15.9951 12.1618 16.6667 11.3333 16.6667ZM8 10.3333C7.17157 10.3333 6.5 11.0049 6.5 11.8333C6.5 12.6618 7.17157 13.3333 8 13.3333C8.82843 13.3333 9.5 12.6618 9.5 11.8333C9.5 11.0049 8.82843 10.3333 8 10.3333ZM11.3333 12.5C10.9651 12.5 10.6667 12.2015 10.6667 11.8333C10.6667 11.4651 10.9651 11.1667 11.3333 11.1667C11.7015 11.1667 12 11.4651 12 11.8333C12 12.2015 11.7015 12.5 11.3333 12.5Z" fill="white"/>
</svg>
