<svg width="24" height="25" viewBox="0 0 24 25" fill="none" xmlns="http://www.w3.org/2000/svg">
<circle cx="12" cy="12.5" r="12" fill="#CE893E"/>
<path fill-rule="evenodd" clip-rule="evenodd" d="M10.8561 5.43781C11.5822 5.10536 12.4178 5.10536 13.1439 5.43781C15.7325 6.62294 17.661 8.31832 18.5897 9.23286C19.0904 9.72596 19.358 10.3835 19.3955 11.0617C19.4418 11.8974 19.5 13.2525 19.5 14.7812C19.5 15.86 19.471 16.8521 19.4377 17.636C19.3844 18.8923 18.3812 19.8777 17.1286 19.9207C15.9695 19.9604 14.2464 20.0003 12 20.0003C9.75357 20.0003 8.03053 19.9604 6.87144 19.9207C5.61878 19.8777 4.61563 18.8923 4.56228 17.636C4.52899 16.8521 4.5 15.86 4.5 14.7812C4.5 13.2525 4.55821 11.8974 4.60446 11.0617C4.642 10.3835 4.90956 9.72596 5.41031 9.23286C6.33898 8.31832 8.2675 6.62294 10.8561 5.43781ZM9.33333 16.5003C8.96513 16.5003 8.66667 16.7988 8.66667 17.167C8.66667 17.5352 8.96513 17.8337 9.33333 17.8337H14.6667C15.0349 17.8337 15.3333 17.5352 15.3333 17.167C15.3333 16.7988 15.0349 16.5003 14.6667 16.5003H9.33333Z" fill="white"/>
</svg>
