<svg width="24" height="25" viewBox="0 0 24 25" fill="none" xmlns="http://www.w3.org/2000/svg">
<circle cx="12" cy="12.5" r="12" fill="#CE893E"/>
<path d="M13.4783 6.8331C12.531 6.38897 11.4693 6.38897 10.522 6.8331L6.06123 8.92439C5.3439 9.2607 5.15688 10.209 5.50016 10.8644V14.1667C5.50016 14.4428 5.72402 14.6667 6.00016 14.6667C6.2763 14.6667 6.50016 14.4428 6.50016 14.1667V11.6147L10.522 13.5002C11.4694 13.9443 12.531 13.9443 13.4784 13.5002L17.9391 11.4089C18.9094 10.954 18.9094 9.37933 17.9391 8.92443L13.4783 6.8331Z" fill="white"/>
<path d="M7.3335 13.1094V15.5832C7.3335 16.2552 7.66916 16.8844 8.25705 17.21C9.23596 17.752 10.8028 18.4996 12.0002 18.4996C13.1975 18.4996 14.7644 17.752 15.7433 17.21C16.3312 16.8844 16.6668 16.2552 16.6668 15.5832V13.1094L13.9028 14.4052C12.6866 14.9754 11.3138 14.9754 10.0975 14.4052L7.3335 13.1094Z" fill="white"/>
</svg>
