<?xml version="1.0" standalone="no"?>
<!DOCTYPE svg PUBLIC "-//W3C//DTD SVG 20010904//EN"
 "http://www.w3.org/TR/2001/REC-SVG-20010904/DTD/svg10.dtd">
<svg version="1.0" xmlns="http://www.w3.org/2000/svg"
 width="16.000000pt" height="8.000000pt" viewBox="0 0 16.000000 8.000000"
 preserveAspectRatio="xMidYMid meet">

<g transform="translate(0.000000,8.000000) scale(0.100000,-0.100000)"
fill="#000000" stroke="none">
<path d="M50 65 l25 -14 -27 -1 c-16 0 -28 5 -28 10 0 6 -4 10 -10 10 -5 0
-10 -14 -10 -32 0 -25 3 -29 12 -20 7 7 23 12 37 12 26 -1 26 -1 -4 -15 -29
-13 -29 -13 30 -14 57 0 59 0 35 14 l-25 14 28 1 c15 0 27 -4 27 -10 0 -5 5
-10 10 -10 6 0 10 14 10 32 0 25 -3 29 -12 20 -7 -7 -23 -12 -37 -12 -26 1
-26 1 4 15 29 13 29 13 -30 14 -57 0 -59 0 -35 -14z"/>
</g>
</svg>
