<?xml version="1.0" standalone="no"?>
<!DOCTYPE svg PUBLIC "-//W3C//DTD SVG 20010904//EN"
 "http://www.w3.org/TR/2001/REC-SVG-20010904/DTD/svg10.dtd">
<svg version="1.0" xmlns="http://www.w3.org/2000/svg"
 width="16.000000pt" height="11.000000pt" viewBox="0 0 16.000000 11.000000"
 preserveAspectRatio="xMidYMid meet">

<g transform="translate(0.000000,11.000000) scale(0.100000,-0.100000)"
fill="#000000" stroke="none">
<path d="M0 95 c0 -12 16 -15 80 -15 64 0 80 3 80 15 0 12 -16 15 -80 15 -64
0 -80 -3 -80 -15z"/>
<path d="M46 61 c-4 -7 -5 -15 -2 -18 9 -9 19 4 14 18 -4 11 -6 11 -12 0z"/>
<path d="M0 15 c0 -12 16 -15 80 -15 64 0 80 3 80 15 0 12 -16 15 -80 15 -64
0 -80 -3 -80 -15z"/>
</g>
</svg>
