<svg xmlns="http://www.w3.org/2000/svg" viewBox="0 0 1225.31 303.06"><defs><style>.cls-1{fill:#fff;}</style></defs><g id="Layer_2" data-name="Layer 2"><g id="Layer_1-2" data-name="Layer 1"><path class="cls-1" d="M244,92.35a92.49,92.49,0,0,1-61.76,87.14,59.17,59.17,0,1,0-61.35,0A92.37,92.37,0,0,1,146,.14S153.47,0,154.39,0s1.85.1,2.8.14A92.51,92.51,0,0,1,244,92.35Z"/><path class="cls-1" d="M303.15,151.5c0,83.59-68,151.56-151.56,151.56S0,235.09,0,151.5a151.8,151.8,0,0,1,95.87-141,99,99,0,1,0,111.35,0C263.34,32.74,303.15,87.54,303.15,151.5Z"/><path class="cls-1" d="M523.67,189.28a37.65,37.65,0,0,1-14,29.87q-13.65,11.47-35,11.48a66,66,0,0,1-30.07-6.76q-13.46-6.75-19.78-18.17l17.6-9.1q4,7.13,12.57,11a47.63,47.63,0,0,0,19.68,3.86q28.68,0,28.68-22a15.77,15.77,0,0,0-1.48-7.13,18,18,0,0,0-4.46-5.55q-7.11-6-25.51-10.7a121.78,121.78,0,0,1-18.8-6.14A48.57,48.57,0,0,1,440.19,152q-12.46-10.11-12.46-26.75a37.37,37.37,0,0,1,12.46-28.14,40.88,40.88,0,0,1,14.34-8,58.23,58.23,0,0,1,18.1-2.67A63.53,63.53,0,0,1,499.24,92q12.17,5.54,18.49,15.62l-16,9.89a32.06,32.06,0,0,0-13.26-9.79,44,44,0,0,0-15.82-2.86,29.21,29.21,0,0,0-10.88,2,31.34,31.34,0,0,0-8.31,4.75,13.83,13.83,0,0,0-4.05,5.84,21,21,0,0,0-1.29,7.42,18.31,18.31,0,0,0,.79,5.24,13.34,13.34,0,0,0,3.76,5.54,32,32,0,0,0,8.71,5.53A94.24,94.24,0,0,0,477,146.36a134.1,134.1,0,0,1,20,6.43A52,52,0,0,1,510.61,161Q523.68,171.68,523.67,189.28Z"/><path class="cls-1" d="M544.83,267.82V133.89H559.9l3.92,9.9A41.43,41.43,0,0,1,577,134.88a42.41,42.41,0,0,1,16.76-3.16,43.45,43.45,0,0,1,18.35,3.86,44.77,44.77,0,0,1,14.57,10.58A49.22,49.22,0,0,1,636.31,162a55.91,55.91,0,0,1,0,38.78,49.22,49.22,0,0,1-9.62,15.82,44.63,44.63,0,0,1-14.57,10.58A43.45,43.45,0,0,1,593.77,231a41.74,41.74,0,0,1-17.06-3.26,38.32,38.32,0,0,1-12.89-9.4v49.46Zm47.38-118.69A31.49,31.49,0,0,0,581.29,151a23.52,23.52,0,0,0-9,5.93,28.5,28.5,0,0,0-6,10.09A42.08,42.08,0,0,0,564,181.37a45.9,45.9,0,0,0,2.18,15.13,26.22,26.22,0,0,0,6,10.09,23.65,23.65,0,0,0,9,5.64A33.16,33.16,0,0,0,592.21,214a24.25,24.25,0,0,0,10.92-2.57,27.87,27.87,0,0,0,8.92-7A33.71,33.71,0,0,0,618,194a37.69,37.69,0,0,0,0-25.32,32.52,32.52,0,0,0-6-10.29,27.27,27.27,0,0,0-8.92-6.82A25,25,0,0,0,592.21,149.13Z"/><path class="cls-1" d="M746.21,133.89v94.76H730l-3-10.88a31.3,31.3,0,0,1-12.66,9.89A38.83,38.83,0,0,1,698.73,231a44.49,44.49,0,0,1-18.49-3.86,47.21,47.21,0,0,1-15-10.58,51.32,51.32,0,0,1,0-70.42,47.37,47.37,0,0,1,15-10.58,44.49,44.49,0,0,1,18.49-3.86A39,39,0,0,1,714,134.79,35.68,35.68,0,0,1,727,144.38l3-10.49ZM698.73,214a24.05,24.05,0,0,0,10.88-2.57,27.94,27.94,0,0,0,8.91-7A34.26,34.26,0,0,0,724.45,194a37.85,37.85,0,0,0,0-25.32,34.26,34.26,0,0,0-5.93-10.39,28.08,28.08,0,0,0-8.91-7,24.32,24.32,0,0,0-21.76,0,27.93,27.93,0,0,0-8.9,7A34.05,34.05,0,0,0,673,168.71,37.85,37.85,0,0,0,673,194,34.05,34.05,0,0,0,679,204.42a27.79,27.79,0,0,0,8.9,7A24.08,24.08,0,0,0,698.73,214Z"/><path class="cls-1" d="M809.11,231a44.53,44.53,0,0,1-18.49-3.86,46.63,46.63,0,0,1-15-10.58,51.63,51.63,0,0,1,0-70.42,46.79,46.79,0,0,1,15-10.58,46.19,46.19,0,0,1,39.66,1.28,47.43,47.43,0,0,1,16.22,14l-13.45,10.48a28.54,28.54,0,0,0-10-9,26.79,26.79,0,0,0-13-3.26,26.46,26.46,0,0,0-11.27,2.47,28.75,28.75,0,0,0-9.3,6.82,32.38,32.38,0,0,0-6.23,10.29,36.29,36.29,0,0,0,0,25.32,33.55,33.55,0,0,0,6.23,10.39,29.34,29.34,0,0,0,9.3,7A25.69,25.69,0,0,0,810.1,214a25.07,25.07,0,0,0,14-4.15,32.17,32.17,0,0,0,10.29-11.08l13,11.47a47,47,0,0,1-16.42,15.14A44.35,44.35,0,0,1,809.11,231Z"/><path class="cls-1" d="M876.57,113.32a11.68,11.68,0,0,1-8.71-3.66,12.18,12.18,0,0,1-3.56-8.8,12.27,12.27,0,1,1,24.53,0,12.14,12.14,0,0,1-3.56,8.8A11.66,11.66,0,0,1,876.57,113.32Zm9.89,115.33H867.07V133.89h19.19Z"/><path class="cls-1" d="M921.47,228.65V150.91H905.25V137.8l16.22-3.91V122.42A53.45,53.45,0,0,1,924,104.91a33.61,33.61,0,0,1,7-12.16,27.86,27.86,0,0,1,10.19-7,32.88,32.88,0,0,1,12.27-2.28,43.55,43.55,0,0,1,16.41,3.36v14a43,43,0,0,0-12.26-2.18q-8.11,0-12.56,4.95t-4.45,15.82v14.44h29.27v17H940.66v77.74Z"/><path class="cls-1" d="M1014.05,218l-40.16-84.08h21.37l29.27,61.52,28.69-61.52h21.16l-61.12,132.54H992.09Z"/><path class="cls-1" d="M1179.42,84.24V228.65h-15.23l-4-9.89a43.15,43.15,0,0,1-13.06,9,41,41,0,0,1-16.81,3.26,42.58,42.58,0,0,1-18.2-3.86,44.85,44.85,0,0,1-14.44-10.58,49.15,49.15,0,0,1-9.59-15.82,56.06,56.06,0,0,1,0-38.78,49.15,49.15,0,0,1,9.59-15.82,45,45,0,0,1,14.44-10.58,42.58,42.58,0,0,1,18.2-3.86,42.07,42.07,0,0,1,17.21,3.26,37.26,37.26,0,0,1,12.66,9.2V84.24ZM1131.84,214a30,30,0,0,0,11-2,24.7,24.7,0,0,0,8.94-6,28.4,28.4,0,0,0,6-10.19,42.93,42.93,0,0,0,2.18-14.44,45,45,0,0,0-2.18-15,26.45,26.45,0,0,0-6-10,22.74,22.74,0,0,0-8.94-5.54,34.78,34.78,0,0,0-11-1.68,25,25,0,0,0-10.92,2.47,27.41,27.41,0,0,0-8.93,6.82,32.91,32.91,0,0,0-6,10.29,38,38,0,0,0,0,25.32,34.12,34.12,0,0,0,6,10.39,28,28,0,0,0,8.93,7A24.28,24.28,0,0,0,1131.84,214Z"/><path class="cls-1" d="M1200.78,218.36a12.15,12.15,0,0,1,3.57-8.8,12.17,12.17,0,0,1,17.4,0,12.18,12.18,0,0,1,3.56,8.8,12.27,12.27,0,1,1-24.53,0Z"/></g></g></svg>