<svg width="22" height="30" viewBox="0 0 22 30" fill="none" xmlns="http://www.w3.org/2000/svg">
<path d="M11 0C8.08369 0.00360779 5.28779 1.22005 3.22564 3.3825C1.16348 5.54495 0.00345217 8.47682 1.17029e-05 11.535C-0.00348119 14.0341 0.774992 16.4654 2.21601 18.456C2.21601 18.456 2.51601 18.8702 2.56501 18.9299L11 29.3617L19.439 18.9247C19.483 18.8691 19.784 18.456 19.784 18.456L19.785 18.4528C21.2253 16.4631 22.0034 14.033 22 11.535C21.9966 8.47682 20.8365 5.54495 18.7744 3.3825C16.7122 1.22005 13.9163 0.00360779 11 0ZM11 15.7295C10.2089 15.7295 9.43553 15.4835 8.77773 15.0226C8.11993 14.5617 7.60724 13.9066 7.30449 13.1402C7.00174 12.3737 6.92253 11.5303 7.07687 10.7167C7.23121 9.903 7.61217 9.1556 8.17158 8.56899C8.73099 7.98237 9.44373 7.58288 10.2197 7.42103C10.9956 7.25919 11.7998 7.34225 12.5307 7.65973C13.2616 7.9772 13.8864 8.51483 14.3259 9.20461C14.7654 9.8944 15 10.7054 15 11.535C14.9987 12.647 14.5768 13.7131 13.827 14.4994C13.0771 15.2858 12.0605 15.7281 11 15.7295Z" fill="#4C6559"/>
</svg>
