<svg width="24" height="24" viewBox="0 0 24 24" fill="none" xmlns="http://www.w3.org/2000/svg">
<path d="M22.6091 18.4248L17.5279 13.8048C17.2877 13.5865 16.972 13.4701 16.6476 13.4801C16.3232 13.4901 16.0154 13.6258 15.7891 13.8586L12.7979 16.9348C12.0779 16.7973 10.6304 16.3461 9.14035 14.8598C7.65035 13.3686 7.1991 11.9173 7.06535 11.2023L10.1391 8.20981C10.3721 7.98372 10.508 7.67584 10.5181 7.35132C10.5281 7.0268 10.4115 6.71111 10.1929 6.47106L5.5741 1.39106C5.35541 1.15026 5.05145 1.00419 4.72679 0.983885C4.40214 0.963579 4.08235 1.07063 3.83535 1.28231L1.12285 3.60856C0.906741 3.82545 0.777752 4.11412 0.760352 4.41981C0.741602 4.73231 0.384103 12.1348 6.1241 17.8773C11.1316 22.8836 17.4041 23.2498 19.1316 23.2498C19.3841 23.2498 19.5391 23.2423 19.5804 23.2398C19.886 23.2227 20.1745 23.0931 20.3904 22.8761L22.7154 20.1623C22.9279 19.9161 23.0357 19.5966 23.0159 19.2719C22.996 18.9473 22.85 18.6433 22.6091 18.4248Z" fill="#4C6559"/>
</svg>
